<?xml version="1.0" encoding="utf-8"?>
<!-- Generator: Adobe Illustrator 24.3.0, SVG Export Plug-In . SVG Version: 6.00 Build 0)  -->
<svg version="1.1" id="Layer_1" xmlns="http://www.w3.org/2000/svg" xmlns:xlink="http://www.w3.org/1999/xlink" x="0px" y="0px"
	 viewBox="0 0 127.3 49" style="enable-background:new 0 0 127.3 49;" xml:space="preserve">
<style type="text/css">
	.st0{fill:#2F2F2F;}
	.st1{fill:#B21A81;}
	.st2{fill:#FFFFFF;}
	.st3{fill:#3C3E3D;}
	.st4{fill:#31BFC3;}
	.st5{opacity:0.25;}
	.st6{fill:#808080;}
	.st7{fill:none;stroke:#808080;stroke-width:0.3983;stroke-miterlimit:10;}
	.st8{fill:#93B48E;}
	.st9{opacity:0.88;fill:none;stroke:#93B48E;stroke-width:0.914;stroke-miterlimit:10;}
	.st10{fill:#E9A036;}
	.st11{fill:#A95A21;}
	.st12{fill:none;stroke:#DE001C;stroke-width:0.4874;stroke-miterlimit:10;}
	.st13{fill:#1C816E;}
	.st14{fill:#5BB9A4;}
	.st15{fill:#122D24;}
	.st16{fill:#175929;}
	.st17{fill:#80BC27;}
	.st18{fill:#7FBA28;}
	.st19{fill:#7FB829;}
	.st20{fill:#80BC28;}
	.st21{fill:#80BC2A;}
	.st22{fill:#3C7651;}
	.st23{fill:#3B7550;}
	.st24{fill:#80AA94;}
	.st25{fill:#FAFCFC;}
	.st26{fill:#25524A;}
	.st27{fill:#A9A01F;}
	.st28{fill:#23995B;}
	.st29{fill:#1D4479;}
	.st30{fill:none;stroke:#262728;stroke-width:1.0774;stroke-miterlimit:10;}
	.st31{fill:#28378C;}
	.st32{fill:#40A6E2;}
	.st33{fill:#FCCE1C;}
	.st34{fill:none;stroke:#737373;stroke-width:1.11;stroke-miterlimit:10;}
	.st35{fill:#00B9D7;}
	.st36{fill:none;stroke:#FFFFFF;stroke-width:1.5619;stroke-miterlimit:10;}
	.st37{fill:#2B3A3B;}
	.st38{fill:none;stroke:#6E1215;stroke-width:0.6419;stroke-miterlimit:10;}
	.st39{fill:none;stroke:#6E1215;stroke-width:0.4466;stroke-miterlimit:10;}
	.st40{opacity:0.88;fill:none;stroke:#93B48E;stroke-width:0.5596;stroke-miterlimit:10;}
	.st41{fill:none;stroke:#FFFFFF;stroke-width:0.9404;stroke-miterlimit:10;}
	.st42{fill:none;stroke:#737373;stroke-width:0.5012;stroke-miterlimit:10;}
	.st43{fill:none;stroke:#FFFFFF;stroke-width:1.3888;stroke-miterlimit:10;}
	.st44{fill:none;stroke:#737373;stroke-width:0.7403;stroke-miterlimit:10;}
	.st45{fill:none;stroke:#23995B;stroke-width:0.6635;stroke-miterlimit:10;}
	.st46{fill:none;stroke:#23995B;stroke-width:0.3962;stroke-miterlimit:10;}
	.st47{fill:none;stroke:#28378C;stroke-width:2;stroke-miterlimit:10;}
	.st48{fill:none;stroke:#28378C;stroke-width:1.0909;stroke-miterlimit:10;}
	.st49{fill:#96AFCE;}
	.st50{fill:#3B3888;}
	.st51{fill:none;stroke:#DE001C;stroke-width:0.451;stroke-miterlimit:10;}
	.st52{fill:none;stroke:#DE001C;stroke-width:0.1983;stroke-miterlimit:10;}
	.st53{fill:none;stroke:#DE001C;stroke-width:0.3536;stroke-miterlimit:10;}
	.st54{fill:none;stroke:#808080;stroke-width:0.3418;stroke-miterlimit:10;}
	.st55{fill:none;stroke:#808080;stroke-width:0.2279;stroke-miterlimit:10;}
	.st56{fill:#37B2B5;}
	.st57{fill:#000100;}
	.st58{fill:none;stroke:#C85119;stroke-width:0.8469;stroke-miterlimit:10;}
	.st59{fill:#C85119;}
	.st60{fill:#1A1718;}
	.st61{fill:none;stroke:#96AFCE;stroke-width:0.5236;stroke-miterlimit:10;}
	.st62{fill:#F2F3F1;}
	.st63{fill:#F2F3F2;}
	.st64{fill:#F1F6F2;}
	.st65{fill:#EFF2F0;}
	.st66{fill:#DFE8E2;}
	.st67{fill:#EDF0EC;}
	.st68{fill:none;stroke:#808080;stroke-width:0.736;stroke-miterlimit:10;}
	.st69{fill:none;stroke:#25524A;stroke-width:1.193;stroke-miterlimit:10;}
	.st70{fill:#3CA835;}
	.st71{fill:#020201;}
	.st72{fill:#37B2B5;stroke:#37B2B5;stroke-width:0.6822;stroke-miterlimit:10;}
	.st73{fill:#737373;}
	.st74{fill:#0B4485;}
	.st75{fill:none;stroke:#262728;stroke-width:1.1895;stroke-miterlimit:10;}
	.st76{fill:#6E1215;}
	.st77{opacity:0.88;}
	.st78{fill:#DE001C;}
	.st79{fill:#DF001B;}
	.st80{fill:#020201;stroke:#FFFFFF;stroke-width:0.5409;stroke-miterlimit:10;}
	.st81{fill:#DF001B;stroke:#FFFFFF;stroke-width:0.5409;stroke-miterlimit:10;}
	.st82{fill:#FFFFFF;stroke:#FFFFFF;stroke-width:2;stroke-miterlimit:10;}
	.st83{fill:#23985B;}
	.st84{fill:#262728;}
	.st85{fill:none;stroke:#FFFFFF;stroke-width:1.6144;stroke-miterlimit:10;}
	.st86{fill:none;stroke:#737373;stroke-width:0.7652;stroke-miterlimit:10;}
	.st87{fill:none;stroke:#808080;stroke-width:0.3675;stroke-miterlimit:10;}
	.st88{fill:none;stroke:#40A6E2;stroke-width:1.408;stroke-miterlimit:10;}
	.st89{fill:#DF001B;stroke:#FFFFFF;stroke-width:0.4562;stroke-miterlimit:10;}
	.st90{fill:#1A1818;}
</style>
<g>
	<g>
		<path class="st59" d="M15.3,17.6c0.1,0.2,0.2,0.4,0.3,0.6c0.1,0.2,0.2,0.4,0.3,0.6c0,0.1,0.1,0.1,0.1,0.2c0,0.1,0.1,0.1,0.1,0.2
			c0-0.1,0-0.3,0-0.4s0-0.3,0-0.4c0-0.1,0-0.2,0-0.4c0-0.1,0-0.3,0-0.4v-7.3c0-0.9-0.1-1.5-0.4-1.7c-0.2-0.2-0.6-0.4-0.9-0.4
			c-0.1,0-0.2,0-0.4-0.1C14.3,8.1,14.2,8,14,8V7.3h5.3V8c-0.8,0-1.4,0.2-1.7,0.6c-0.3,0.4-0.5,0.9-0.5,1.7v12.4h-1L8,11.3
			c-0.3-0.4-0.5-0.7-0.8-1.1C7,9.8,6.7,9.4,6.5,9.1v9.7c0,0.9,0.1,1.7,0.3,2.2c0.2,0.5,0.9,0.8,1.9,0.9v0.7H3.3v-0.7
			c0.9,0,1.4-0.2,1.8-0.6c0.3-0.4,0.5-1,0.5-1.9V9.8C5.6,9,5.4,8.5,5,8.3C4.6,8.1,4.1,8,3.4,8c0,0,0,0,0,0c0,0,0,0,0,0V7.3h4.5
			L15.3,17.6z"/>
		<path class="st59" d="M28.6,17.1h-0.7c0-0.7-0.1-1.2-0.4-1.6c-0.3-0.4-0.8-0.6-1.5-0.6h-1.6V20c0,0.9,0.2,1.4,0.6,1.5
			c0.4,0.2,0.9,0.3,1.6,0.3c0,0,0,0,0.1,0s0,0,0.1,0v0.7h-6.8v-0.7c0,0,0,0,0,0c0,0,0,0,0,0c0.7,0,1.3-0.1,1.7-0.3
			c0.4-0.2,0.6-0.7,0.6-1.5V9.8c0-0.8-0.2-1.3-0.6-1.5C21.2,8.1,20.6,8,19.9,8c0,0,0,0,0,0c0,0,0,0,0,0V7.3H31l0.4,3.7h-0.7
			c-0.2-0.8-0.6-1.5-1-2.1C29.4,8.3,28.7,8,27.7,8h-3.3v6h1.7c0.7,0,1.1-0.2,1.4-0.6c0.3-0.4,0.4-0.9,0.4-1.5h0.7V17.1z"/>
		<path class="st59" d="M40.5,22.9c-2.3,0-4.2-0.8-5.8-2.3c-1.5-1.5-2.3-3.4-2.3-5.7c0-2.4,0.8-4.3,2.3-5.8c1.5-1.5,3.5-2.2,5.8-2.2
			c2.3,0,4.3,0.7,5.8,2.2c1.5,1.5,2.3,3.4,2.3,5.8c0,2.3-0.8,4.2-2.3,5.7C44.8,22.2,42.8,22.9,40.5,22.9L40.5,22.9z M44.7,20
			c0.8-1.4,1.2-3,1.3-4.7c0-0.1,0-0.1,0-0.2c0-0.1,0-0.1,0-0.2c0-0.1,0-0.1,0-0.2c0-0.1,0-0.1,0-0.2c-0.1-1.7-0.5-3.3-1.3-4.7
			c-0.8-1.4-2.2-2.1-4.2-2.1c-2,0-3.4,0.7-4.2,2.1s-1.2,3-1.3,4.7c0,0.1,0,0.1,0,0.2c0,0.1,0,0.1,0,0.2c0,0,0,0.1,0,0.1s0,0.1,0,0.1
			c0,1.8,0.4,3.4,1.2,4.8c0.8,1.4,2.2,2.2,4.2,2.2C42.5,22.1,43.9,21.4,44.7,20z"/>
		<path class="st59" d="M64.9,12.8h-0.7c-0.4-1.4-1-2.7-1.8-3.6c-0.9-1-2.1-1.5-3.7-1.5c-1.6,0-2.8,0.6-3.6,1.8
			c-0.8,1.2-1.3,2.5-1.5,3.9c0,0.2-0.1,0.5-0.1,0.7c0,0.2,0,0.4,0,0.7c0,1.8,0.4,3.4,1.3,4.9c0.9,1.5,2.3,2.2,4.3,2.2
			c0,0,0.1,0,0.1,0c0.1,0,0.1,0,0.1,0c1.1-0.1,2.2-0.5,3.2-1.2c1-0.7,1.7-1.6,2.1-2.6l0.8,0.6c-0.6,1.3-1.5,2.3-2.7,3
			c-1.2,0.7-2.5,1.1-3.9,1.2c0,0-0.1,0-0.1,0c-0.1,0-0.1,0-0.2,0c-2.3,0-4.1-0.7-5.5-2.2c-1.4-1.5-2.1-3.4-2.1-5.6
			c0-2.2,0.7-4.2,2.1-5.8c1.4-1.6,3.3-2.4,5.6-2.4c0.9,0,1.8,0.1,2.6,0.4C62,7.6,62.8,8,63.5,8.5c0.1-0.1,0.1-0.2,0.2-0.4
			c0.1-0.1,0.1-0.3,0.2-0.4c0-0.1,0-0.1,0.1-0.2C64,7.4,64,7.4,64,7.3h0.6L64.9,12.8z"/>
		<path class="st59" d="M12.3,43.1H3.5l0.2-0.9c0.3-0.2,0.6-0.5,0.9-0.8c0.3-0.3,0.6-0.5,0.9-0.8C6.8,39.3,8,38,9.1,36.4
			c1.1-1.5,1.7-3.2,1.7-5c0-0.8-0.3-1.5-0.8-2.1c-0.5-0.6-1.2-0.9-2-0.9c-0.8,0-1.5,0.3-2,0.8c-0.6,0.5-0.9,1.2-0.9,2
			c0,0.1,0,0.2,0,0.2c0,0.1,0,0.2,0,0.2c0.1,0.4,0.2,0.7,0.5,1.1c0.2,0.3,0.5,0.5,0.9,0.7c0,0.1-0.1,0.2-0.3,0.3
			c-0.1,0.1-0.3,0.1-0.4,0.2c-0.1,0-0.1,0-0.2,0c-0.1,0-0.1,0-0.2,0c-0.4,0-0.7-0.2-1-0.5C4.2,33.2,4,32.8,4,32.4
			c0-0.1-0.1-0.2-0.1-0.4c0-0.1,0-0.2,0-0.4c0-1.2,0.4-2.1,1.3-2.8s1.8-1,2.9-1c1.3,0,2.4,0.4,3.3,1.2c0.9,0.8,1.4,1.8,1.4,3.1
			c0,1.5-0.5,2.9-1.5,4.2c-1,1.3-2.1,2.4-3.4,3.4c-0.4,0.3-0.7,0.6-1.1,0.8c-0.4,0.3-0.7,0.5-1.1,0.8h5.4c0.4,0,0.7-0.1,0.9-0.4
			c0.2-0.3,0.4-0.6,0.5-0.9c0,0,0,0,0-0.1c0,0,0,0,0-0.1c0-0.1,0-0.1,0.1-0.2c0-0.1,0.1-0.1,0.1-0.2h0.5L12.3,43.1z"/>
		<path class="st59" d="M25.8,43.3c-0.8,0-1.6-0.3-2.2-0.8s-1.1-1.1-1.5-1.8c-0.5-0.8-0.8-1.6-0.9-2.5S21,36.5,21,35.6
			c0-0.4,0-0.9,0.1-1.3c0-0.5,0.1-1,0.2-1.4c0.3-1.2,0.8-2.4,1.5-3.4s1.7-1.6,3.1-1.6c1.3,0,2.4,0.5,3.1,1.6c0.7,1,1.2,2.2,1.5,3.4
			c0.1,0.5,0.2,0.9,0.2,1.4c0,0.5,0.1,0.9,0.1,1.3s0,0.9-0.1,1.3c0,0.5-0.1,0.9-0.2,1.4c-0.3,1.3-0.8,2.4-1.5,3.4
			C28.2,42.8,27.2,43.3,25.8,43.3L25.8,43.3z M27.6,41.6c0.4-0.8,0.7-1.7,0.8-2.6c0.1-0.7,0.2-1.3,0.2-2c0-0.6,0-1.1,0-1.4
			c0-0.3,0-0.8,0-1.4c0-0.6-0.1-1.3-0.2-2c-0.2-0.9-0.4-1.8-0.8-2.6c-0.4-0.8-1-1.2-1.7-1.2s-1.4,0.4-1.7,1.2
			c-0.4,0.8-0.7,1.7-0.8,2.6c-0.1,0.7-0.2,1.3-0.2,2c0,0.6,0,1.1,0,1.4c0,0.3,0,0.8,0,1.4c0,0.6,0.1,1.3,0.2,2
			c0.2,0.9,0.4,1.8,0.8,2.6c0.4,0.8,1,1.2,1.7,1.2S27.2,42.4,27.6,41.6z"/>
		<path class="st59" d="M47.4,43.1h-8.9l0.2-0.9c0.3-0.2,0.6-0.5,0.9-0.8c0.3-0.3,0.6-0.5,0.9-0.8c1.3-1.2,2.5-2.6,3.6-4.2
			c1.1-1.5,1.7-3.2,1.7-5c0-0.8-0.3-1.5-0.8-2.1c-0.5-0.6-1.2-0.9-2-0.9c-0.8,0-1.5,0.3-2,0.8c-0.6,0.5-0.9,1.2-0.9,2
			c0,0.1,0,0.2,0,0.2c0,0.1,0,0.2,0,0.2c0.1,0.4,0.2,0.7,0.5,1.1c0.2,0.3,0.5,0.5,0.9,0.7c0,0.1-0.1,0.2-0.3,0.3
			c-0.1,0.1-0.3,0.1-0.4,0.2c-0.1,0-0.1,0-0.2,0c-0.1,0-0.1,0-0.2,0c-0.4,0-0.7-0.2-1-0.5c-0.2-0.3-0.4-0.7-0.5-1.1
			c0-0.1-0.1-0.2-0.1-0.4c0-0.1,0-0.2,0-0.4c0-1.2,0.4-2.1,1.3-2.8s1.8-1,2.9-1c1.3,0,2.4,0.4,3.3,1.2c0.9,0.8,1.4,1.8,1.4,3.1
			c0,1.5-0.5,2.9-1.5,4.2c-1,1.3-2.1,2.4-3.4,3.4c-0.4,0.3-0.7,0.6-1.1,0.8c-0.4,0.3-0.7,0.5-1.1,0.8h5.4c0.4,0,0.7-0.1,0.9-0.4
			c0.2-0.3,0.4-0.6,0.5-0.9c0,0,0,0,0-0.1c0,0,0,0,0-0.1c0-0.1,0-0.1,0.1-0.2c0-0.1,0.1-0.1,0.1-0.2h0.5L47.4,43.1z"/>
		<path class="st59" d="M59.7,33.6c0.5-0.2,1-0.3,1.6-0.3c1.3,0,2.4,0.5,3.1,1.5c0.8,1,1.2,2.1,1.2,3.4c0,1.3-0.4,2.5-1.2,3.6
			c-0.8,1-1.9,1.6-3.4,1.6c-1.6,0-2.8-0.6-3.5-1.7s-1.2-2.4-1.3-3.8c0-0.1,0-0.3,0-0.4c0-0.1,0-0.3,0-0.4c0-0.4,0-0.7,0-1.1
			c0-0.4,0.1-0.7,0.1-1.1c0.3-1.7,1-3.3,2-4.8c1-1.4,2.5-2.2,4.5-2.2c0.1,0,0.3,0,0.4,0c0.2,0,0.3,0,0.5,0.1c0.4,0.1,0.7,0.2,1,0.4
			c0.3,0.2,0.5,0.5,0.5,0.9c0,0.2-0.1,0.4-0.2,0.6c-0.1,0.2-0.3,0.3-0.6,0.3c-0.2,0-0.4-0.1-0.6-0.2c-0.1-0.1-0.3-0.3-0.4-0.5
			c0,0,0-0.1,0-0.1c0,0,0,0-0.1-0.1c-0.1-0.2-0.3-0.4-0.5-0.6c-0.2-0.2-0.4-0.3-0.7-0.3c-0.9,0-1.6,0.4-2.1,1.2s-1,1.6-1.2,2.5
			c-0.1,0.4-0.2,0.9-0.3,1.3c-0.1,0.4-0.1,0.8-0.1,1.1C58.7,34,59.2,33.7,59.7,33.6z M63.6,37.5c0-0.3,0-0.5-0.1-0.8
			c-0.1-0.7-0.4-1.4-0.8-2c-0.4-0.6-1-0.9-1.8-0.9c-0.8,0-1.4,0.3-1.8,0.9c-0.4,0.6-0.7,1.2-0.8,1.9c0,0.2-0.1,0.4-0.1,0.6
			c0,0.2,0,0.4,0,0.6c0,0.3,0,0.6,0,0.9c0,0.3,0.1,0.6,0.1,1c0.1,0.8,0.4,1.5,0.8,2.1c0.4,0.6,1,1,1.8,1c0.8,0,1.4-0.3,1.8-0.9
			c0.4-0.6,0.6-1.3,0.8-2c0-0.3,0.1-0.6,0.1-0.9c0-0.3,0-0.5,0-0.8C63.7,38,63.6,37.7,63.6,37.5z"/>
	</g>
	<g>
		<path class="st60" d="M84.2,21.7L79.7,9.8h-0.1c0,0.3,0,0.6,0.1,1s0,0.8,0,1.3c0,0.5,0,0.9,0,1.4v8.2h-1.6V8.1h2.5l4.2,11.1H85
			l4.3-11.1h2.5v13.6h-1.7v-8.3c0-0.4,0-0.9,0-1.3s0-0.8,0.1-1.2c0-0.4,0-0.7,0.1-1h-0.1l-4.5,11.9H84.2z"/>
		<path class="st60" d="M104,21.7l-1.6-4.2h-5.4l-1.6,4.2h-1.7l5.3-13.6h1.5l5.3,13.6H104z M100.3,11.9c0-0.1-0.1-0.3-0.2-0.6
			c-0.1-0.3-0.2-0.5-0.3-0.8c-0.1-0.3-0.1-0.5-0.2-0.7c-0.1,0.3-0.1,0.5-0.2,0.8c-0.1,0.3-0.1,0.5-0.2,0.7c-0.1,0.2-0.1,0.4-0.2,0.6
			L97.5,16h4.3L100.3,11.9z"/>
		<path class="st60" d="M111.1,14.8l3.5-6.7h1.8l-4.5,8.3v5.3h-1.7v-5.2l-4.5-8.4h1.9L111.1,14.8z"/>
		<path class="st60" d="M86.3,35.9c0,1.1-0.1,2.1-0.2,2.9s-0.4,1.6-0.8,2.2c-0.4,0.6-0.8,1.1-1.4,1.4c-0.6,0.3-1.3,0.5-2.1,0.5
			c-1,0-1.9-0.3-2.5-0.8c-0.7-0.6-1.2-1.4-1.5-2.4c-0.3-1-0.5-2.3-0.5-3.8c0-1.5,0.1-2.7,0.4-3.8c0.3-1,0.8-1.8,1.4-2.4
			c0.7-0.6,1.5-0.8,2.6-0.8c1,0,1.9,0.3,2.5,0.8c0.7,0.6,1.2,1.3,1.5,2.4S86.3,34.4,86.3,35.9z M79,35.9c0,1.2,0.1,2.3,0.3,3.1
			c0.2,0.8,0.5,1.4,0.9,1.9s1,0.6,1.6,0.6s1.2-0.2,1.6-0.6c0.4-0.4,0.7-1,0.9-1.9s0.3-1.9,0.3-3.1c0-1.2-0.1-2.3-0.3-3.1
			c-0.2-0.8-0.5-1.4-0.9-1.8c-0.4-0.4-1-0.6-1.6-0.6s-1.2,0.2-1.6,0.6s-0.7,1-0.9,1.8C79.1,33.6,79,34.7,79,35.9z"/>
		<path class="st60" d="M89.8,42.7l5.6-12h-7.3v-1.5h9.1v1.3l-5.5,12.3H89.8z"/>
		<path class="st60" d="M98.8,38.3v-1.5h4.6v1.5H98.8z"/>
		<path class="st60" d="M114.1,35.9c0,1.1-0.1,2.1-0.2,2.9s-0.4,1.6-0.8,2.2c-0.4,0.6-0.8,1.1-1.4,1.4c-0.6,0.3-1.3,0.5-2.1,0.5
			c-1,0-1.9-0.3-2.5-0.8c-0.7-0.6-1.2-1.4-1.5-2.4c-0.3-1-0.5-2.3-0.5-3.8c0-1.5,0.1-2.7,0.4-3.8c0.3-1,0.8-1.8,1.4-2.4
			c0.7-0.6,1.5-0.8,2.6-0.8c1,0,1.9,0.3,2.5,0.8c0.7,0.6,1.2,1.3,1.5,2.4S114.1,34.4,114.1,35.9z M106.8,35.9c0,1.2,0.1,2.3,0.3,3.1
			c0.2,0.8,0.5,1.4,0.9,1.9s1,0.6,1.6,0.6s1.2-0.2,1.6-0.6c0.4-0.4,0.7-1,0.9-1.9s0.3-1.9,0.3-3.1c0-1.2-0.1-2.3-0.3-3.1
			c-0.2-0.8-0.5-1.4-0.9-1.8c-0.4-0.4-1-0.6-1.6-0.6s-1.2,0.2-1.6,0.6s-0.7,1-0.9,1.8C106.9,33.6,106.8,34.7,106.8,35.9z"/>
		<path class="st60" d="M120.4,28.9c0.8,0,1.5,0.1,2.1,0.4c0.6,0.2,1.1,0.6,1.4,1.1c0.3,0.5,0.5,1.1,0.5,1.8c0,0.5-0.1,1-0.4,1.4
			c-0.2,0.4-0.5,0.8-0.9,1.1s-0.8,0.6-1.3,0.8c0.6,0.3,1.1,0.6,1.5,0.9s0.8,0.7,1.1,1.2s0.4,1,0.4,1.6c0,0.8-0.2,1.4-0.6,2
			c-0.4,0.6-0.9,1-1.5,1.3c-0.7,0.3-1.4,0.5-2.3,0.5c-1,0-1.8-0.1-2.5-0.4c-0.7-0.3-1.2-0.7-1.5-1.2c-0.3-0.5-0.5-1.2-0.5-2
			c0-0.6,0.1-1.2,0.4-1.6c0.3-0.5,0.6-0.8,1-1.2c0.4-0.3,0.9-0.6,1.4-0.8c-0.4-0.3-0.8-0.5-1.2-0.9c-0.4-0.3-0.6-0.7-0.9-1.1
			s-0.3-0.9-0.3-1.5c0-0.7,0.2-1.3,0.5-1.8c0.4-0.5,0.8-0.8,1.4-1.1C119,29.1,119.7,28.9,120.4,28.9z M117.6,39.3
			c0,0.7,0.2,1.2,0.7,1.6c0.5,0.4,1.2,0.7,2.2,0.7c0.9,0,1.6-0.2,2.1-0.7c0.5-0.4,0.7-1,0.7-1.7c0-0.4-0.1-0.8-0.4-1.2
			c-0.2-0.3-0.6-0.6-1-0.9s-0.9-0.5-1.5-0.7l-0.3-0.1c-0.6,0.2-1,0.5-1.4,0.8c-0.4,0.3-0.7,0.6-0.9,1S117.6,38.8,117.6,39.3z
			 M120.4,30.3c-0.7,0-1.3,0.2-1.7,0.5s-0.7,0.8-0.7,1.5c0,0.5,0.1,0.9,0.3,1.2c0.2,0.3,0.5,0.6,0.9,0.8c0.4,0.2,0.8,0.4,1.3,0.6
			c0.4-0.2,0.8-0.4,1.2-0.6c0.3-0.2,0.6-0.5,0.8-0.8c0.2-0.3,0.3-0.7,0.3-1.2c0-0.6-0.2-1.1-0.7-1.5
			C121.7,30.5,121.1,30.3,120.4,30.3z"/>
	</g>
	<g>
		<rect x="71.1" y="6.5" class="st59" width="0.8" height="37.1"/>
	</g>
</g>
</svg>
